<?xml version="1.0" encoding="UTF-8"?>
<svg version="1.1" xmlns="http://www.w3.org/2000/svg" width="712" height="351">
<path d="M0 0 C1.45273315 0.00410889 1.45273315 0.00410889 2.93481445 0.00830078 C11.17240402 0.12843661 19.21736416 0.62407611 26.25 5.3125 C26.578125 7.203125 26.578125 7.203125 26.5 9.5625 C26.45939453 10.89087891 26.45939453 10.89087891 26.41796875 12.24609375 C25.5210934 28.61928336 25.5210934 28.61928336 24.25 34.3125 C23.10273437 34.15523437 21.95546875 33.99796875 20.7734375 33.8359375 C9.24352488 32.41055015 -0.64141652 31.91598971 -10.75 38.3125 C-11.74 38.6425 -12.73 38.9725 -13.75 39.3125 C-14.85168984 41.01019234 -14.85168984 41.01019234 -15.75 43.3125 C-16.265625 44.364375 -16.78125 45.41625 -17.3125 46.5 C-20.23375409 53.54097139 -20.26771639 59.85842992 -17.84375 67.07421875 C-15.84513623 71.16423906 -12.79748214 73.28875893 -8.75 75.3125 C-3.92011758 75.72052543 1.02395339 75.95377913 5.25 73.3125 C5.8997271 71.27683498 5.8997271 71.27683498 6.25 69.3125 C5.03441406 69.25191406 3.81882812 69.19132812 2.56640625 69.12890625 C0.98175772 69.04451668 -0.60287702 68.9598679 -2.1875 68.875 C-2.98994141 68.83568359 -3.79238281 68.79636719 -4.61914062 68.75585938 C-10.63671875 68.42578125 -10.63671875 68.42578125 -11.75 67.3125 C-11.76667674 65.67536853 -11.71299482 64.03739931 -11.62890625 62.40234375 C-11.58056641 61.41298828 -11.53222656 60.42363281 -11.48242188 59.40429688 C-11.42634766 58.36337891 -11.37027344 57.32246094 -11.3125 56.25 C-11.26029297 55.20521484 -11.20808594 54.16042969 -11.15429688 53.08398438 C-11.02416704 50.49321764 -10.88918842 47.90279334 -10.75 45.3125 C4.26197026 44.47960922 19.21591419 44.17711408 34.25 44.3125 C34.58389056 52.39158604 34.870705 60.47111818 35.12109375 68.55322266 C35.2385657 71.97904299 35.39634645 75.400497 35.5625 78.82421875 C35.6270458 80.75774529 35.68966731 82.69133741 35.75 84.625 C35.83217773 85.94588623 35.83217773 85.94588623 35.91601562 87.29345703 C36.01643649 92.06809746 35.47414871 94.66507321 32.12890625 98.18359375 C19.21382849 109.3826479 1.90679358 112.60173025 -14.73974609 111.51953125 C-27.46307353 110.20918614 -38.88461297 103.6068263 -46.96875 93.81640625 C-53.00570257 85.33025143 -55.88031021 76.48098833 -57.75 66.3125 C-57.96914063 67.06273437 -58.18828125 67.81296875 -58.4140625 68.5859375 C-60.66415919 75.84844469 -63.42285493 82.05612401 -67.75 88.3125 C-68.18957031 88.94929688 -68.62914062 89.58609375 -69.08203125 90.2421875 C-76.01117144 99.22810417 -86.80355998 104.26155946 -97.75 106.3125 C-111.58548549 107.63601291 -123.74946645 105.22054075 -134.75 96.3125 C-141.96943745 90.26020494 -145.9692166 83.8781437 -149.75 75.3125 C-150.41179014 73.97673953 -151.07759276 72.64294757 -151.75 71.3125 C-151.83564209 72.15546631 -151.92128418 72.99843262 -152.00952148 73.86694336 C-152.32842728 76.98515731 -152.65126489 80.1029314 -152.97680664 83.22045898 C-153.11706601 84.5715321 -153.25574267 85.92277048 -153.39282227 87.27416992 C-153.58977794 89.21315232 -153.7928415 91.15151127 -153.99609375 93.08984375 C-154.11654053 94.25765381 -154.2369873 95.42546387 -154.36108398 96.62866211 C-154.75 99.3125 -154.75 99.3125 -155.75 100.3125 C-157.17609797 100.52245125 -158.61133742 100.67088786 -160.04760742 100.79321289 C-160.9633403 100.87322037 -161.87907318 100.95322784 -162.82255554 101.03565979 C-163.8234169 101.11799362 -164.82427826 101.20032745 -165.85546875 101.28515625 C-166.88626053 101.37252548 -167.91705231 101.45989471 -168.9790802 101.5499115 C-171.17393156 101.73454063 -173.36898301 101.91680354 -175.56420898 102.09692383 C-178.8787831 102.37015969 -182.19229565 102.65425819 -185.50585938 102.93945312 C-196.27637097 103.84597754 -206.93330161 104.64890161 -217.75 104.3125 C-218.05065604 82.17727708 -217.60447397 60.07826317 -216.88027191 37.95605087 C-216.8124895 35.87467761 -216.74633326 33.79325766 -216.68048096 31.71182251 C-216.5549741 27.76729766 -216.420918 23.82309229 -216.28515625 19.87890625 C-216.24655991 18.68448914 -216.20796356 17.49007202 -216.16819763 16.25946045 C-216.12824173 15.1536261 -216.08828583 14.04779175 -216.04711914 12.90844727 C-216.01380997 11.94447525 -215.98050079 10.98050323 -215.94618225 9.98731995 C-215.75 7.3125 -215.75 7.3125 -214.75 2.3125 C-202.21 2.3125 -189.67 2.3125 -176.75 2.3125 C-175.39001133 6.39246601 -176.05308571 10.06607504 -176.4921875 14.265625 C-176.58001495 15.15803894 -176.66784241 16.05045288 -176.7583313 16.96990967 C-177.04120959 19.83474232 -177.33263964 22.69862079 -177.625 25.5625 C-178.000717 29.29654895 -178.37248317 33.03097626 -178.7421875 36.765625 C-178.8778714 38.12463928 -178.8778714 38.12463928 -179.01629639 39.5111084 C-179.66647587 46.13677557 -180.14955764 52.75780967 -180.50830078 59.40527344 C-180.75 62.3125 -180.75 62.3125 -181.75 66.3125 C-171.85 66.3125 -161.95 66.3125 -151.75 66.3125 C-151.79125 63.858125 -151.8325 61.40375 -151.875 58.875 C-151.92802821 44.62187707 -147.78465803 32.82049096 -137.75 22.3125 C-128.58480867 14.27511259 -118.09769675 9.16089117 -105.75 9.3125 C-91.05254786 10.2863373 -79.16521074 13.36510202 -68.7734375 24.4140625 C-61.83573167 32.76883165 -59.28200836 41.7093895 -57.75 52.3125 C-57.42128906 50.89710938 -57.42128906 50.89710938 -57.0859375 49.453125 C-52.86218206 32.03583543 -45.0388514 17.45237338 -29.75 7.3125 C-20.02120909 1.97998281 -10.99711419 -0.06258597 0 0 Z M-117.625 49.9375 C-119.66932391 56.07047174 -119.75902781 61.8284502 -117 67.75 C-115.41273044 70.7670719 -113.67297157 72.53651728 -110.75 74.3125 C-106.53495726 75.22328813 -102.46870938 75.22684082 -98.61328125 73.17578125 C-94.75901145 70.09721355 -92.65897773 67.26137873 -91.75 62.3125 C-91.25224589 56.8372048 -92.07628217 53.12519209 -94.75 48.3125 C-97.27735665 45.48426755 -99.14378943 43.64065055 -102.9296875 42.8671875 C-109.51307181 42.53469334 -113.71990172 44.47036241 -117.625 49.9375 Z " fill="#211D1E" transform="translate(596.75,113.6875)"/>
<path d="M0 0 C0.8883252 0.07307373 1.77665039 0.14614746 2.69189453 0.22143555 C4.79875998 2.90566316 6.17782954 5.19937507 7.69189453 8.22143555 C8.22685547 9.2779834 8.76181641 10.33453125 9.31298828 11.4230957 C11.14167971 15.11051552 12.92196764 18.81812687 14.69189453 22.53393555 C15.30086647 23.80170736 15.91023927 25.0692867 16.52001953 26.33666992 C20.00180528 33.59382497 23.36003163 40.89133716 26.69189453 48.22143555 C27.35189453 33.37143555 28.01189453 18.52143555 28.69189453 3.22143555 C54.15886492 2.0369253 54.15886492 2.0369253 63.69189453 2.22143555 C65.02288419 6.21440451 64.59916151 9.89582146 64.36230469 14.03564453 C64.31528915 14.9367395 64.26827362 15.83783447 64.21983337 16.76623535 C64.0625952 19.75033598 63.89696244 22.73390451 63.73095703 25.7175293 C63.61942923 27.78872094 63.50829967 29.85993407 63.39755249 31.9311676 C63.16402923 36.27495707 62.92650634 40.61850381 62.68603516 44.96191406 C62.37788717 50.53135088 62.07832611 56.10120823 61.78159523 61.67126369 C61.55295028 65.94961335 61.32040971 70.22774415 61.08662033 74.50581551 C60.97473712 76.55948262 60.86391583 78.61320787 60.75416946 80.66699028 C60.6000624 83.53749867 60.44087705 86.40768076 60.28027344 89.27783203 C60.23554398 90.12835648 60.19081451 90.97888092 60.14472961 91.85517883 C60.09983902 92.63885834 60.05494843 93.42253784 60.00869751 94.22996521 C59.97144876 94.90819556 59.93420002 95.58642591 59.89582253 96.2852087 C59.67994303 98.33491096 59.23655375 100.23592041 58.69189453 102.22143555 C49.83754902 103.68676737 40.93322748 104.71129556 32.00439453 105.59643555 C30.94091797 105.71744629 29.87744141 105.83845703 28.78173828 105.96313477 C27.77884766 106.0561084 26.77595703 106.14908203 25.74267578 106.24487305 C24.391698 106.3828833 24.391698 106.3828833 23.01342773 106.52368164 C20.69189453 106.22143555 20.69189453 106.22143555 19.15988159 104.46990967 C17.75135458 102.31250882 16.79475297 100.34654186 15.88256836 97.94360352 C15.56246292 97.10948944 15.24235748 96.27537537 14.91255188 95.41598511 C14.57805527 94.52420563 14.24355865 93.63242615 13.89892578 92.71362305 C13.54803391 91.7917923 13.19714203 90.86996155 12.83561707 89.92019653 C12.09722909 87.9763597 11.36197056 86.0313316 10.62963867 84.08520508 C9.50489599 81.09776748 8.36971885 78.114456 7.23291016 75.1315918 C6.5167984 73.24250264 5.80128284 71.35318735 5.08642578 69.46362305 C4.74585648 68.5677951 4.40528717 67.67196716 4.05439758 66.74899292 C3.74374863 65.92118317 3.43309967 65.09337341 3.11303711 64.24047852 C2.83784744 63.51085907 2.56265778 62.78123962 2.27912903 62.0295105 C1.69189453 60.22143555 1.69189453 60.22143555 1.69189453 58.22143555 C1.03189453 58.22143555 0.37189453 58.22143555 -0.30810547 58.22143555 C-0.28490234 59.18436523 -0.26169922 60.14729492 -0.23779297 61.1394043 C-0.07762071 71.37056279 -0.54698922 81.51345631 -1.24560547 91.72143555 C-1.33245605 93.015896 -1.41930664 94.31035645 -1.50878906 95.64404297 C-2.17941891 104.96406244 -2.17941891 104.96406244 -3.30810547 107.22143555 C-14.19810547 107.22143555 -25.08810547 107.22143555 -36.30810547 107.22143555 C-37.49573112 103.6585586 -37.35547071 100.96905712 -37.25390625 97.20922852 C-37.23615143 96.49792282 -37.21839661 95.78661713 -37.20010376 95.05375671 C-37.13975289 92.69021011 -37.0716603 90.32695397 -37.00341797 87.96362305 C-36.95912202 86.30145365 -36.91525525 84.63927277 -36.87179565 82.9770813 C-36.77912992 79.47477614 -36.68294202 75.97259194 -36.58398438 72.47045898 C-36.45936079 68.05892421 -36.34062896 63.64725942 -36.22424698 59.23550034 C-35.72198671 40.2247828 -35.15332414 21.22054197 -34.30810547 2.22143555 C-30.00325535 1.9340889 -25.69824312 1.64934451 -21.39306641 1.36694336 C-19.93045476 1.27064237 -18.46788863 1.17364752 -17.00537109 1.07592773 C-14.89546285 0.93507555 -12.7854001 0.79677216 -10.67529297 0.65893555 C-9.4079834 0.57514648 -8.14067383 0.49135742 -6.83496094 0.4050293 C-4.55572996 0.2863818 -2.27722109 0.15243096 0 0 Z " fill="#221E1F" transform="translate(177.30810546875,114.778564453125)"/>
<path d="M0 0 C5.78051865 5.3536871 9.54032112 11.99966204 10.1796875 19.91796875 C10.31016147 27.52895048 9.68055723 33.27140249 4.6015625 39.15234375 C2.10142826 41.29531595 -0.41612455 43.39098805 -3.0234375 45.40234375 C-2.44335938 45.74265625 -1.86328125 46.08296875 -1.265625 46.43359375 C5.64238264 50.71975031 10.25662834 55.18068718 13.3515625 62.77734375 C14.84022246 71.41157153 14.54121027 78.75537699 9.79296875 86.27734375 C2.82195324 95.4403783 -8.91396912 98.23084972 -19.80859375 99.8046875 C-36.40292679 101.54768939 -54.41130461 100.79707338 -70.0234375 94.40234375 C-72.68983657 91.73594468 -72.25985171 89.74989817 -72.27227783 86.12467957 C-72.26508728 85.24354996 -72.25789673 84.36242035 -72.25048828 83.45458984 C-72.25078033 82.52770859 -72.25107239 81.60082733 -72.25137329 80.64585876 C-72.24997639 77.57240541 -72.23439825 74.49919242 -72.21875 71.42578125 C-72.21502115 69.29871757 -72.21217358 67.17165219 -72.21017456 65.04458618 C-72.20252802 59.43855063 -72.18287077 53.83261825 -72.1607666 48.22662354 C-72.14033014 42.50916947 -72.13117756 36.79169879 -72.12109375 31.07421875 C-72.09962584 19.85021502 -72.0654776 8.62628795 -72.0234375 -2.59765625 C-69.50548428 -3.4088686 -66.98582017 -4.21390645 -64.46484375 -5.015625 C-63.76089478 -5.24310425 -63.0569458 -5.4705835 -62.33166504 -5.70495605 C-42.96975996 -11.83538927 -16.79395908 -13.2600951 0 0 Z M-37.0234375 24.40234375 C-37.25871523 26.75221637 -37.43730167 29.10790414 -37.5859375 31.46484375 C-37.66972656 32.75519531 -37.75351562 34.04554688 -37.83984375 35.375 C-37.90042969 36.37402344 -37.96101563 37.37304688 -38.0234375 38.40234375 C-34.71921858 39.46986063 -33.99171563 39.39176979 -30.4609375 38.21484375 C-26.36517661 36.11239722 -26.36517661 36.11239722 -24.0234375 32.40234375 C-24.14916916 29.32191805 -24.56484101 27.21163167 -26.0859375 24.52734375 C-28.90542056 22.89022455 -34.5369771 21.91588335 -37.0234375 24.40234375 Z M-37.0234375 54.40234375 C-38.16421407 57.82467347 -38.12158867 60.48907592 -38.0859375 64.08984375 C-38.07691406 65.26933594 -38.06789063 66.44882813 -38.05859375 67.6640625 C-38.04699219 68.56769531 -38.03539062 69.47132813 -38.0234375 70.40234375 C-32.42519226 70.68721299 -32.42519226 70.68721299 -27.0859375 69.27734375 C-24.8006666 67.49985997 -24.8006666 67.49985997 -24.0234375 64.52734375 C-24.0234375 60.77545525 -24.63132877 59.27287422 -27.0234375 56.40234375 C-30.42358422 54.5233153 -33.17326673 54.18233399 -37.0234375 54.40234375 Z " fill="#221E1F" transform="translate(363.0234375,124.59765625)"/>
<path d="M0 0 C0.73541016 0.00202423 1.47082031 0.00404846 2.22851562 0.00613403 C2.97939453 0.00517731 3.73027344 0.00422058 4.50390625 0.00323486 C6.09440189 0.00255315 7.6849003 0.00440682 9.27539062 0.00857544 C11.71816217 0.01392386 14.16074984 0.00863019 16.60351562 0.00222778 C18.1451827 0.00288857 19.68684966 0.00416973 21.22851562 0.00613403 C21.96392578 0.0041098 22.69933594 0.00208557 23.45703125 0 C28.61356402 0.02399493 28.61356402 0.02399493 29.72851562 1.13894653 C29.84230289 3.71436347 29.89271322 6.26181746 29.89648438 8.83816528 C29.90147697 10.01811821 29.90147697 10.01811821 29.90657043 11.22190857 C29.91165012 12.89908259 29.91397844 14.57626678 29.91381836 16.25344849 C29.91596811 18.77080143 29.93400773 21.28768908 29.953125 23.80496216 C30.04575946 49.22004572 25.36269305 77.0765272 7.02148438 96.04910278 C-2.46874005 104.69862589 -11.59577486 106.76338658 -24.10742188 106.43972778 C-33.14076138 105.94777317 -39.50071233 102.08551217 -45.94726562 95.86160278 C-58.37990414 81.29765481 -59.98864527 61.15453095 -59.70898438 42.82644653 C-59.69851494 41.20771315 -59.68809881 39.58897942 -59.67773438 37.97024536 C-59.54758529 26.19175305 -58.57684724 14.70692807 -56.27148438 3.13894653 C-52.2572552 2.16239766 -48.63171195 2.08199818 -44.50976562 2.22488403 C-43.22650391 2.26871216 -41.94324219 2.31254028 -40.62109375 2.35769653 C-39.95875732 2.38347778 -39.2964209 2.40925903 -38.61401367 2.43582153 C-36.58011412 2.51409548 -34.54605937 2.58106398 -32.51171875 2.64675903 C-22.53188124 3.0087481 -22.53188124 3.0087481 -20.27148438 4.13894653 C-20.82309448 10.81334662 -21.54735714 17.44236047 -22.42724609 24.08108521 C-26.18489939 50.68886871 -26.18489939 50.68886871 -19.27148438 76.13894653 C-16.8316374 75.95485005 -16.8316374 75.95485005 -14.27148438 75.13894653 C-3.75092403 60.73035302 -6.12519136 34.7997226 -6.27148438 17.88894653 C-6.29802209 14.73790902 -6.31795992 11.58692786 -6.33398438 8.43582153 C-6.34228271 7.71618225 -6.35058105 6.99654297 -6.35913086 6.25509644 C-6.36768421 4.54948435 -6.32484271 2.84374524 -6.27148438 1.13894653 C-4.53855458 -0.59398326 -2.30934102 0.01074607 0 0 Z " fill="#211D1E" transform="translate(106.271484375,119.86105346679688)"/>
<path d="M0 0 C-0.69096822 17.25633567 -2.17364935 34.45619456 -3.58398438 51.66503906 C-3.93360852 55.93119316 -4.27883918 60.19768963 -4.62277222 64.46430588 C-4.89055535 67.78107701 -5.16043735 71.09767476 -5.43096924 74.41422272 C-5.55914107 75.98814282 -5.68671589 77.56211166 -5.81365967 79.13613129 C-5.99085805 81.32888772 -6.17084489 83.52139835 -6.3515625 85.71386719 C-6.45291504 86.95561707 -6.55426758 88.19736694 -6.65869141 89.47674561 C-7.00047821 93.00493642 -7.47110933 96.49539678 -8 100 C-11.64103952 101.21367984 -15.13824956 101.35831121 -18.9375 101.5625 C-19.63423828 101.60568359 -20.33097656 101.64886719 -21.04882812 101.69335938 C-27.39273243 102.05374348 -33.61526819 102 -40 102 C-40 69 -40 36 -40 2 C-12 0 -12 0 0 0 Z " fill="#211D1E" transform="translate(287,119)"/>
<path d="M0 0 C0.33 0 0.66 0 1 0 C1 3.96 1 7.92 1 12 C-0.32 12 -1.64 12 -3 12 C-3 10.68 -3 9.36 -3 8 C-2.34 8 -1.68 8 -1 8 C-0.67 5.36 -0.34 2.72 0 0 Z " fill="#343233" transform="translate(540,167)"/>
</svg>
